<svg xmlns="http://www.w3.org/2000/svg" version="1.1" xmlns:xlink="http://www.w3.org/1999/xlink" width="200" height="200"><svg xmlns="http://www.w3.org/2000/svg" version="1.1" xmlns:xlink="http://www.w3.org/1999/xlink" width="200" height="200"><svg xmlns="http://www.w3.org/2000/svg" version="1.1" xmlns:xlink="http://www.w3.org/1999/xlink" viewBox="0 0 200 200"><rect width="200" height="200" fill="url('#gradient')"></rect><defs><linearGradient id="gradient" gradientTransform="rotate(45 0.5 0.5)"><stop offset="0%" stop-color="#7dabaa"></stop><stop offset="100%" stop-color="#f5e8ce"></stop></linearGradient></defs><g><g fill="#2c1f37" transform="matrix(3.879604293832877,0,0,3.879604293832877,7.570186404448208,127.58824335301807)" stroke="#15374d" stroke-width="0.2"><path d="M8.41-3.78L8.41-3.78Q8.41-4.53 7.88-4.95Q7.34-5.37 6.01-5.82Q4.67-6.27 3.82-6.69L3.82-6.69Q1.05-8.05 1.05-10.42L1.05-10.42Q1.05-11.60 1.74-12.50Q2.43-13.41 3.69-13.91Q4.95-14.41 6.52-14.41L6.52-14.41Q8.06-14.41 9.27-13.87Q10.49-13.32 11.16-12.31Q11.84-11.30 11.84-10L11.84-10L8.42-10Q8.42-10.87 7.89-11.35Q7.35-11.83 6.45-11.83L6.45-11.83Q5.53-11.83 5.00-11.42Q4.46-11.02 4.46-10.39L4.46-10.39Q4.46-9.84 5.05-9.40Q5.63-8.96 7.11-8.48Q8.58-8.01 9.53-7.46L9.53-7.46Q11.84-6.13 11.84-3.80L11.84-3.80Q11.84-1.93 10.43-0.87Q9.02 0.20 6.57 0.20L6.57 0.20Q4.84 0.20 3.44-0.42Q2.04-1.04 1.33-2.12Q0.63-3.20 0.63-4.61L0.63-4.61L4.06-4.61Q4.06-3.47 4.65-2.92Q5.24-2.38 6.57-2.38L6.57-2.38Q7.42-2.38 7.92-2.75Q8.41-3.12 8.41-3.78ZM22.41-8.57L22.41-6.03L17.02-6.03L17.02-2.64L23.39-2.64L23.39 0L13.59 0L13.59-14.22L23.41-14.22L23.41-11.57L17.02-11.57L17.02-8.57L22.41-8.57ZM32.88-4.81L36.29-4.81Q36.22-3.33 35.49-2.19Q34.76-1.05 33.43-0.43Q32.11 0.20 30.41 0.20L30.41 0.20Q27.61 0.20 26.00-1.63Q24.38-3.46 24.38-6.79L24.38-6.79L24.38-7.49Q24.38-9.58 25.11-11.15Q25.84-12.71 27.21-13.57Q28.57-14.42 30.37-14.42L30.37-14.42Q32.96-14.42 34.53-13.06Q36.10-11.70 36.32-9.31L36.32-9.31L32.90-9.31Q32.86-10.61 32.25-11.17Q31.63-11.74 30.37-11.74L30.37-11.74Q29.09-11.74 28.50-10.78Q27.90-9.82 27.87-7.72L27.87-7.72L27.87-6.72Q27.87-4.44 28.44-3.47Q29.01-2.49 30.41-2.49L30.41-2.49Q31.59-2.49 32.22-3.05Q32.84-3.60 32.88-4.81L32.88-4.81ZM43.69-11.78L43.69-8.07L47.02-8.07L47.02-5.24L43.69-5.24L43.69-1.43L40.62-1.43L40.62-5.24L37.28-5.24L37.28-8.07L40.62-8.07L40.62-11.78L43.69-11.78Z"></path></g></g></svg></svg><style>@media (prefers-color-scheme: light) { :root { filter: none; } }
@media (prefers-color-scheme: dark) { :root { filter: none; } }
</style></svg>